<?xml version="1.0" encoding="utf-8"?>
<svg viewBox="41.859 164.676 92.676 92.676" xmlns="http://www.w3.org/2000/svg">
  <g id="surface1" style="" fill="#FFF">
    <path d="M 126.425781 179.824219 C 126.425781 175.941406 123.269531 172.785156 119.386719 172.785156 L 57.007812 172.785156 C 53.128906 172.785156 49.972656 175.941406 49.972656 179.824219 L 49.972656 242.203125 C 49.972656 246.082031 53.128906 249.238281 57.007812 249.238281 L 119.386719 249.238281 C 123.269531 249.238281 126.425781 246.082031 126.425781 242.203125 Z M 119.386719 257.351562 L 57.007812 257.351562 C 48.65625 257.351562 41.859375 250.554688 41.859375 242.203125 L 41.859375 179.824219 C 41.859375 171.46875 48.65625 164.675781 57.007812 164.675781 L 119.386719 164.675781 C 127.742188 164.675781 134.535156 171.46875 134.535156 179.824219 L 134.535156 242.203125 C 134.535156 250.554688 127.742188 257.351562 119.386719 257.351562 "/>
    <path d="M 110.589844 227.667969 L 114.011719 224.242188 L 118.617188 241.429688 L 101.429688 236.828125 L 104.851562 233.402344 L 88.199219 216.75 L 71.542969 233.402344 L 74.96875 236.828125 L 57.78125 241.433594 L 62.382812 224.242188 L 65.808594 227.667969 L 82.460938 211.011719 L 65.808594 194.359375 L 62.382812 197.78125 L 57.78125 180.59375 L 74.96875 185.199219 L 71.542969 188.621094 L 88.199219 205.277344 L 104.851562 188.621094 L 101.429688 185.199219 L 118.617188 180.59375 L 114.011719 197.78125 L 110.589844 194.359375 L 93.933594 211.011719 L 110.589844 227.667969 "/>
  </g>
</svg>